<?xml version="1.0" encoding="UTF-8" standalone="no"?>
<!DOCTYPE svg PUBLIC "-//W3C//DTD SVG 20010904//EN"
"http://www.w3.org/TR/2001/REC-SVG-20010904/DTD/svg10.dtd">
<!-- Created with Sodipodi ("http://www.sodipodi.com/") -->
<svg
   width="48pt"
   height="48pt"
   viewBox="0 0 48 48"
   style="overflow:visible;enable-background:new 0 0 48 48"
   xml:space="preserve"
   id="svg548"
   sodipodi:version="0.32"
   sodipodi:docname="/home/david/Desktop/temp/filesystems/gnome-fs-directory.svg"
   sodipodi:docbase="/home/david/Desktop/temp/filesystems/"
   xmlns="http://www.w3.org/2000/svg"
   xmlns:xap="http://ns.adobe.com/xap/1.0/"
   xmlns:xapGImg="http://ns.adobe.com/xap/1.0/g/img/"
   xmlns:sodipodi="http://sodipodi.sourceforge.net/DTD/sodipodi-0.dtd"
   xmlns:rdf="http://www.w3.org/1999/02/22-rdf-syntax-ns#"
   xmlns:xml="http://www.w3.org/XML/1998/namespace"
   xmlns:xapMM="http://ns.adobe.com/xap/1.0/mm/"
   xmlns:pdf="http://ns.adobe.com/pdf/1.3/"
   xmlns:dc="http://purl.org/dc/elements/1.1/"
   xmlns:a="http://ns.adobe.com/AdobeSVGViewerExtensions/3.0/"
   xmlns:x="adobe:ns:meta/"
   xmlns:xlink="http://www.w3.org/1999/xlink">
  <defs
     id="defs664" />
  <sodipodi:namedview
     id="base" />
  <metadata
     id="metadata549">
    <xpacket>
begin='﻿' id='W5M0MpCehiHzreSzNTczkc9d'</xpacket>
    <x:xmpmeta
       x:xmptk="XMP toolkit 3.0-29, framework 1.6">
      <rdf:RDF>
        <rdf:Description
           rdf:about="uuid:1d5424af-bcf6-4c39-808f-267922041dc2">
          <pdf:Producer>
Adobe PDF library 5.00</pdf:Producer>
        </rdf:Description>
        <rdf:Description
           rdf:about="uuid:1d5424af-bcf6-4c39-808f-267922041dc2" />
        <rdf:Description
           rdf:about="uuid:1d5424af-bcf6-4c39-808f-267922041dc2" />
        <rdf:Description
           rdf:about="uuid:1d5424af-bcf6-4c39-808f-267922041dc2">
          <xap:CreateDate>
2003-03-10T02:02:16+02:00</xap:CreateDate>
          <xap:ModifyDate>
2004-03-29T08:59:47Z</xap:ModifyDate>
          <xap:CreatorTool>
Adobe Illustrator 10.0</xap:CreatorTool>
          <xap:MetadataDate>
2004-01-18T18:44:12+01:00</xap:MetadataDate>
          <xap:Thumbnails>
            <rdf:Alt>
              <rdf:li
                 rdf:parseType="Resource">
                <xapGImg:format>
JPEG</xapGImg:format>
                <xapGImg:width>
256</xapGImg:width>
                <xapGImg:height>
256</xapGImg:height>
                <xapGImg:image>
/9j/4AAQSkZJRgABAgEASABIAAD/7QAsUGhvdG9zaG9wIDMuMAA4QklNA+0AAAAAABAASAAAAAEA
AQBIAAAAAQAB/+4ADkFkb2JlAGTAAAAAAf/bAIQABgQEBAUEBgUFBgkGBQYJCwgGBggLDAoKCwoK
DBAMDAwMDAwQDA4PEA8ODBMTFBQTExwbGxscHx8fHx8fHx8fHwEHBwcNDA0YEBAYGhURFRofHx8f
Hx8fHx8fHx8fHx8fHx8fHx8fHx8fHx8fHx8fHx8fHx8fHx8fHx8fHx8fHx8f/8AAEQgBAAEAAwER
AAIRAQMRAf/EAaIAAAAHAQEBAQEAAAAAAAAAAAQFAwIGAQAHCAkKCwEAAgIDAQEBAQEAAAAAAAAA
AQACAwQFBgcICQoLEAACAQMDAgQCBgcDBAIGAnMBAgMRBAAFIRIxQVEGE2EicYEUMpGhBxWxQiPB
UtHhMxZi8CRygvElQzRTkqKyY3PCNUQnk6OzNhdUZHTD0uIIJoMJChgZhJRFRqS0VtNVKBry4/PE
1OT0ZXWFlaW1xdXl9WZ2hpamtsbW5vY3R1dnd4eXp7fH1+f3OEhYaHiImKi4yNjo+Ck5SVlpeYmZ
qbnJ2en5KjpKWmp6ipqqusra6voRAAICAQIDBQUEBQYECAMDbQEAAhEDBCESMUEFURNhIgZxgZEy
obHwFMHR4SNCFVJicvEzJDRDghaSUyWiY7LCB3PSNeJEgxdUkwgJChgZJjZFGidkdFU38qOzwygp
0+PzhJSktMTU5PRldYWVpbXF1eX1RlZmdoaWprbG1ub2R1dnd4eXp7fH1+f3OEhYaHiImKi4yNjo
+DlJWWl5iZmpucnZ6fkqOkpaanqKmqq6ytrq+v/aAAwDAQACEQMRAD8A9U4q7FXYq7FXYq7FXYq7
FXYq7FXYq7FXYqsmmhgieaZ1jijBaSRyFVVG5JJ6YqwPUvzf0yO5MGl2MuoldvUr6StTuo4uxHzU
YQLUlqw/OPR3k9LU7KewcGhI/eqP9bZH/wCFwUrLdL8zaBqoH6Pv4Z2P+6w1JPpjajj7sVTPFXYq
7FXYq7FXYq7FXYq7FXYq7FXYq7FXYq7FXYq7FXYq7FXYq7FXYq7FXYq7FXYq7FXYq87/ADX1O5lk
0/y7avxa9YSXAHdeXGMH/J5BiflhiLNIkaFpx5Z8q2VtZCOEenEuxcAc5G7sxzMnkGPYBxYQOTco
vUfKFneJxkSO4XssyAkfJt8iNQD9QZeAR9JYfqv5VWJJe3WWzcbhoz6qV8aGp/4YY+HjlyNI48ke
YtARQfmVof8AxztS+v2ybCCUh/hHbjL9n/YtkJaaQ5bs46iJ5o+0/OHULF1h8x6NJC3QywVWvyjk
6/8AB5TKJHNuEgeTLdI/MXyfqnFYdRjhmP8Aum4/ctU9vjop/wBiTkUsjVlZQykFSKgjcEHFW8Vd
irsVdirsVdirsVdirsVdirsVdirsVdirsVdirsVdirsVdirsVdirsVdiryb1v01+Y1/e/at9PrHE
eoqg9IfeeTZkaaNyvuaNRKo09TsofRtYo+4X4vmdzlWSVyJbMcaiArZBm7FVGaztZv7yNWJ/a6H7
xvk45JDkWEoA8wl135ctJkZAao3WOQB1P35fHUnqGo6cdCxHWPyq0i5qy2nosf8Adlo3H/hD8P8A
wuH91LyY/vI+bHV8m+cNDct5f1qSNVNfq0pZB9KnnG30qMB03cUjUd4RUP5nefNEovmDRxdwJ9u5
jHpmncl4+cX4DKJY5DmG6OSJ5Fkuj/nH5L1Dik80mnTHbjcp8Nf+Mic1p/rUyDNmNnf2N7CJ7O4j
uYT0khdXU/SpIxVXxV2KuxV2KuxV2KuxV2KuxV2KuxV2KuxV2KuxV2KuxV2KuxV2Kpf5g1MaXol7
fk0NvCzJXu9KIPpYgYq8/wDyw0xjai4kFXvJi7MepSPbf6eWZeP04ye9xcnqmA9QzEcp2KuxV2Ku
xV2KrZIYpRxkQOPBhXCJEckGIPNAzaJZvulYj7Go+45fHUyHPdplgiWM6z+Wuj3/ACaayhlc/wC7
Yx6MlfEleNfpOT8THLmGHhzjyLDLv8qr3TZzc6Hqdzp1wPs8yy/QJI+Bp9Bx/LxP0lPjkfUF8Xmn
83/L9BdQJrVqn7fH1Gp7NHwk+llOVSwSHRsjmiU50n8+PL0z+jrFncaZODR2A9aNT3rQLIP+Aylt
Z1o/mjy7rKg6XqMF0SK+mjj1AOu8Zo4+kYqmeKuxV2KuxV2KuxV2KuxV2KuxV2KuxV2KuxV2KuxV
2KsB/N/Umj0e00uLeW/mqVHUpFQ0+l2XFU88n6atnZpGOlvGsIPiafEcy9RtERcbBuTJkWYjkuxV
2KuxV2KuxV2KuxV2KuIBFCKg9QcVQc2lWMu/p8D4pt+HTLo55Dq1SwxKSav5I03UU43MEN2B0EyA
sP8AVbqMt8eJ+oNXgkfSWCax+S2m8jLYvcadKu6Mh9aNT1rueX/D4+FjlyK+JOPMIGKL84fLn/HO
1IavaJ0gmYSniO1JqOPkj5CWmkOW7OOoieaY2P583VjKtv5p0KazlPWWAFa+JEU3E0/2ZygxI5tw
kDyZxof5meR9a4pZ6rEk7bC3uCYJK+AEnHkf9UnAlk4IIBBqD0OKuxV2KuxV2KuxV2KuxV2KuxV2
KuxV2KuxV5V5im/TP5lRwD4rfSkUHw5J8ZP/ACMcL9GXYI3JqzSqL0rSofSsYwer/Gfp6fhjnlci
uGNRReUtrsVdirsVdirsVdirsVdXFWsKuxQ1XFWsKFCaztZv7yME/wAw2P3jJxySHIsZQB5hLL7y
3ZXMTROFkib7UUyiRD9By4ajvDScHcWEa5+THly85Olo1pIf92WbUH/ItuS/cuGscvJbyR82KT+X
vzA8iRtqHl7VpLywtqvPYSA8Qg3NYWLIwA6laN4ZXPTkCxuzhnBNHZ635B862Pm/QU1GBfRuEPpX
ltWpjlAqaHupG6nMdvZJirsVdirsVdirsVdirsVdirsVdiqje3UVnZz3cxpFbxtLIf8AJRSx/Vir
yz8vbaa/ur3VJ95r6fjy+Z5yH72/DMvB6YmTjZt5CL1kAAADYDYDMRyXYq7FXYq7FXYq7FXVxVqu
FXYoarirWFXVxQ0TirVcKtYoariqW63HG0CswBavH5gg1GZOnJumjONni/5Oan+i/PGs2luaabLO
0RQbqFV5PTYfID7sxZ8y5EeQfQORZOxV2KuxV2KuxV2KuxV2KuxV2KsP/NTVPqXlSSFTSS+dYB48
ftv+C0+nFXeQNK+qafbRstGhiDv/AMZJdz+s5l5fTjAcXH6pkswzEcp2KuxV2KuxV2KtVxV2FDVc
Vawq6uKGicVarhVrFWq4odXCrWKGJfmHrg0rQ768DcWtYGMR/wCLZPhjH/BFcycfpgZNGT1SAeWf
lFpLfVjdcayTsSp7mp4KP+JZhOW+iMVdirsVczKqlmICgVJOwAGKpNqHnXydp1Rf65YWzDqstzCr
eH2S1e2Xw0uWXKMj8C1yzQHMhjV/+e/5V2Wza4kz9lt4p5a/7JUK/jmVDsnUS/h+5olrcQ6oC1/5
yM/K2eYRvfT24P8Au2W2l4g+/AOfwyyXYuoA5A/FiO0MR6vQtK1jStXskvtLu4r2zk+xPA4dCR1F
V7juM1uTHKBqQouXGYkLBtF5Bk7FXYq8v/MKb9LedNM0ZfiitFDzj3f43H/ItF+/LMUbkAwySqJL
0DRIfTs+Z6ykt9A2GWamVyrua8EaimGY7e7FXYq7FWq4q7CrVcUNYqhrvU9Os/8Aeu6ht+/72RU2
/wBkRk4wlLkLYmQHNJrz8w/JVoSJdYt2p/vpjN/yaD5fHR5T/CWs54Dqkt3+c/kuAkRPc3QHeKGl
f+Rpjy+PZmU9wajq4BKW/PfSROqrpdwbevxSF0DgeITcH/gsu/kqVfULYfnR3PQ9J1Wz1XToNQs3
9S2uF5RN02BI3B6EEb5rsmMwkYnmHKhMSFhF1yDJrFDVcVaJwq8V/PPV3eys9LhJMuoXBcqO6RUC
qfmzj7svz+mIi04d5Esq/LPRkt4rWICqQryr7RgKp/4LfMNynpTMqqWYgKBUk7AAYq+f/wAxP+cl
ngu5dM8mQxzem3B9XmBdWYGh9CPYEf5TbHw750ei7DscWX5frdTqO0aNQ+bzW6/MD85dVq0msagn
Pf8AdOLP7vS9KmbzH2VhjygPjv8Ae66WtyHnIoVfJP5k68QZkvL6u4MjT3H6hJ4Zb+6xczCPxAa7
nPpKXzTrT/8AnHvz5dEc7ZogevIIn/Jx4z+GY8+0tNHnMfCy2R0uY8oH7mTaf/zi9rUlDd3ccXiD
Jv8Ackb/APEsxZ9u6ccuI/Buj2dnP80IrVv+cYLiKzeSxulnmUE+mrFWPy5jifvGRxdvYZGpAx8+
a5Ozc0RYIk878v655u/LLzKJrZ29Itxu7R6rFOiGjJIh+y6+PVfl1ztXpMeeFH4Fx9NqZQlY+IfX
PlfzLpfmXQ7bWNNfnbXK14n7SP8AtRuOzKdjnDZsUsczGXMPTY5icRIcimuVM2mZVUsxooFST2Ax
V5J5VZ9Z8z6rrRBIlkMdvXwdvhH+xRVGZWmHOTjag8g9aijEcSRr0QBR9GY0jZtyAKFLsCUFc63o
1qStzf28BHUSSoh/4YjLI4pnkCWBnEcylNz+Ynk2CobUkYjtGsklfpRSMvjosp/hazqcY6pPc/nD
5XiqIorqcjoVRVU/Szg/hl0ezMh50Gs6yHmk91+dtARa6Tv2eWb/AI1VP45fHsrvl9jUdd3BJ7n8
4vNk9Utre2hJ6FY3d/8AhmI/DL49mYxzJazrJ+SXz+cfzNv1otxcIh6elCkQ/wCCVFP45dHR4Y9G
o6mZ6oKTSfzC1Q8bi4upgeiy3DOP+BDN+rLQMUOQAazklLqSq235TeaZzWRQvLqeLn8WCD8cEtZi
HUJGKZ6FN7X8kdSahnnK/wDAL+oyZTLtPGGwaXIeibQfkppkNDd3Qp/lOT+oRZUe1AfpiSz/ACUu
sgGOfmB5Q0fRNOb9HmOYqI3aZdyKvwK/af2zL02olkFkU42XHwSAu2R/lDq1x/hRoVYUt7mRQpHZ
gr/rbNV2kP3l94djpD6Pi9Jt5xNCsgFK9R7jNe5K+uFXYqh76X07WQ9yOI+nbLMUbkGvIaD598yT
trv5omJPig0tViX/AFo9z9PrSU+jI6iVyZYI1F7p5OsVgsmkp1pGh9kHX6ScobmCf85Jeb7jRPJc
WlWkhiutdkaB2Bofq0agzAf6xZFPsTm57E0wyZeI8off0cDtDLwwofxPNPyM/LWy1y6k1PVRSxtU
Esxrx2avBAe3IKSxHbbaudF2nrTpsY4f7yfLy83VaTTjLI8X0R5ve4NV8raWBDpmnIix7K0UaRg+
9ftH5nOZlgz5d5y+Zt2Y1GKG0Yul86yn+6tVXwLMW/UFxj2cOpQdeegQkvm7Vn+yY4/9Va/8SLZb
HQYx3lqOtme5By+YNXk+1duP9Wif8Rpl0dLjH8LUdTM9VKHWtRhkEiXUnIdmYsD8wajJS08JCqDG
OeYN2Xnn53WlnqUKarFGI55o+U6j/f0BAZh/rRsM2nZYlHHLGd+E7e4/guHrZA5IzH8XP3j8BJfy
a/Mi08oyTQalK40+diXiRWc1psygbVBzX9qdn5MuQSgOm7sdFq4wgRI9Xpl5/wA5H+To6i0sb65Y
dGKRRofpLs3/AAuYcew8p5mIciXacOgLG9Y/5yHvNSsrixsdFW1FxG8RuJLgyMA60JCqiUO/jlx7
EERZl9jWO0iTQiknlTzr5mtyttYLHEis0zMsXNi3QE8uQ8O2ZY7NxQxb2bcQ62csnTZks3mXz/e7
veXK1/32BB/xAJlMdJiH8IbZaqZ6qH6D82amazPPcE9TJI8v6ueTvHDuDDilLvKNtvyx8wTU5RlK
+Kkf8TKZXLWYh1ZjBkP8JTW2/KC8anrzcfmyj/iIkymXaWMct20aPIe4JnB+U+jxb3Nwu3iWP/Gy
ZSe0ieUSzGj75BMIPIvk63+3xcjuEU/rVz+OQOszHkGQ02Mcyjo9P8rWwpHbM9PmB91VH4ZA5M56
0y4MI6WrC70uL+50+MEdGIWv6jkfDmecinjgOUQ02vXIHGOONF7UB/riNLHqSp1B6IaTWdRb/dvE
eCgD+GWDTw7ms5596Elvbt/tzOw8Cxpl0ccR0azkkeqFZqmp65YA1ljfnOL1tJukAqRAzU/1fiH6
sysPJomfUEu/Jq5Bi1S3J3VopFX5hgT+AzB7Tj9J97sNGeYeu6W9bcg9mP6hmqc1F8l8RhpFtc18
RjS2knmnVILDT5rmVv3drE9xIO9EUn+BzIwigZNGU2QHif5W2ct5e3erXHxTXErSMx7kHkT9Lv8A
hmETblgU+i9Ntvq1jDDShVRy/wBY7n8TgS+ff+cskcXvlpyDwMd2FPaoaGv6xnTez3Kfw/S6ftTn
H4oz8qtUSLyhPZoaNI9vJIR3T0jxH3rmy7Tw3khL+i4ODLUJR82Sm7XxzD8NeNTa9XxyQxsTkU2v
x45IYmJyKTagPHJDExOVVii1S4/3ntJ5a/yRu36hkZShHnID4swJy5An4IbXPIfmzWrVYI7B1UrI
pMjJHQSKATR2U9sOHtHT47uXP3lGTQ551UeSUWH/ADjjqxo11dRRAdQZCT9yof8AiWQn23gHISLk
R7NznnwhP7P8gNAgobzUUJHVVUn8Wk/41zGl25f04/t/Y2jss/xZPkETeflz5I0vgsJeWTiWc0RR
7U4oD+OY0+0s+QgVEfj3t0dDigCTKRT3yroXluCKWYWXOpCKXJPTc9T7+GOs1GY1HiY6XBiFypka
S2EP9xYwx06EKo/UMwDGZ5yLnAxHKIXtqtyegVfkP65EYIpOYqL3923WQj5UH6smMUe5icku9Qea
VvtOzfMk5YIgMDIlSJyTFaThQsJwoWE5JipsckEKbHJBiVNjkgxUmOSDEpPqSi49aM/ZdTH9BFDm
VjFBx5ndhv5T3Ho+YbmBjxMtuwA8WR1NPurmN2hG4A+bnaU+r4PaNKf+8X5H9eacOcUeThQ0ThV5
B+c+tcNLmgRvivJlgX/jHF8TEfSo+/MnOeDCB3uNhHHlJ7k4/KvQvQs7OBl3+EyD/V+N/vYkZq3Z
PXcVeIf85V6f6nlbRtQpX6tetAT4CeJm/wCZOb/sCdZJR7x939rrO04+kHzY3+R+iXOu2ciQXCQ+
jCvPmCSQHZRQDwpm97V1ccWOJIu3VabTHLIgGqeuRflrEByudSZh34RhKfSzNnPS7YP8MftdiOyh
1kiI/JflWH+8ee4Pfk9P+IBMrPaOc8qDMaDCOdlFxaL5Vgp6Wmo9P9+Vf/iZfKpajPLnP8fBsGDC
OUUZFPa2/wDvNZww06cFA/4iBlMoyl9UiW4SjHkAG31O5PQhfkP64BhipylDyX103WVh8jT9WWDH
HuYHIe9DvK7faYn5muWAMCVMnJMWOapP6ly5rtWg+S7Zbpo3O+5r1EqhXeyPToPQsYY6UbjVvm25
yrLLikS2Yo8MQEQTlbNaThQtJwoWk4VWk4ULScKFhOSQsY4QxUmOSDFTY5IMVNjkghQlk4oW8OmT
iLLCRSx8yg45YH5WcWX5hrGdkM88Q+TqwX8aZVqxeIuXpz6g9r0x6XBH8ynNEHZlNCcLFQvLj0LW
WXuikj59vxyzHHikAwnKgS8C86TfpXzzY6YDyislDSjr8TfvX+9Qowa+dzruTooVC+97j5F0/wBG
3MhFCiCMf6zfE+YLmMqxV5r/AM5E6f8AW/ys1GUCrWU1vcKO/wDfLET0/lkObTsadaged/c4Wvje
I+Tzb/nGG/4azNbMdpYZo1HuDHKP1NnQduw4tKD/ADZOs7NlWau+L3/UbhnlMQPwJ1Hic5XFGhbt
8srNIPLWp2KtFqYaVTZskAhTZskAxWFsNMbUbmb04HfuBt8+2EqGP2kX1jUIouq8hy+Q3OZGH04z
Joy+rIAy4nMJy1pOFDROFC0nCq0nChaThQsJwoWE5JisY4QhTY5IMSpMckGKmxyYQg7mSp4joOvz
y6AaplCNloai891JxY+fYbjoguLeU/I8eX8ccguBHk34jVPa7J+N1H7mn3imc8HapwThQk3mW7SG
zCs3FSS7k9AqCprmXpY7k9zjamWwHe8V8gxPrHme+1eUVEsp417AnmR9CqozV5J8Uie92MI8MQH0
boVt6GmQgijSD1G/2W4/CmQZo/FWM/mbYfX/AMvfMVsByZtPuHRfF4ozIo/4JRmVoZ8OeB/pBp1M
bxyHk+bv+ce7/wCred7VSaBpQlPH1o3j/WRnadpQ4tLkHlfyLz+klWaJfTd6Ct3KPev375x+PeId
5MbqNTk2LROKFhbJUxKmWw0xJWFslTErC2GkJdq84WFU/mNT8hgl3Jip+W4eUstwR9kcR823OZOo
9MRFx8HqkZJ+TmG5S0nCq0nChaTihaThRa0nJItYThQtJwoU2bJAIU2OSDEqTHJBioSyUHv2ycQw
kUI+XBqKi2TDEvPPzAjMerwTLtzhG/8AlKx/qMsizhyewafdCaK2uhssqpKPkwDZzko0SHcA2LZC
ThQ84/NrWvqmiXvE0eRRaRfOT7f/AAvLMiZ4MJ/pNERx5h5ID8pNDK6dbgij3BBY/wDGQ8ifoTjm
pdm9yAAAAFANgMVdiqld2yXNrNbSf3c6NG/ycFT+vDGVG0EWKfFn5b3Mmk+drf1vhe1nRnHSjQTK
T1+R7Z6NKPiY5AfxRP2h5QHhmD3SD7A1VaXVf5lB/h/DOEwH0vSZOaDJy5rWFsNMSsLZKmJUy2Gm
BWFslTErC2GkWkWrz8pmFdloo/WclijxZB5IyyqCd6LD6OnR12aT4z9PT8MGolcyuCNRRpOUty0n
ChaThQtJwoWlsNIWFsNIWFslSLWlsNIU2bJAMSVNmyQDFRd6ZIBiShnau5y0BrKixyYYlSc5IMSw
r8xIaxWU38rOhP8ArAEf8RyyLLGzzyhdfWfLGmydxAsZ/wCef7v/AI1zRamNZD73a4jcQzIzKsHq
t9kLyPypXIRFmmRNB4L+b+s27ahZWd1N6VvHW5vJKE8RI3EGigmoAbYDvk9bcpRxxYaPYGZTnyz+
ef5daKiMTd3fpKeK20H7TbCnrNF0XJYux88+4e8/qZz1+OPemif85VeV2vY4zo94lmzASXDNHzVT
T4vTBNab/tZlHsDJX1C2n+U43yNPabK9tb6zgvbSQTWtyiywSr0ZHFVI+YOaKUTEkHmHZA2LCtkU
vizzDaDS/wA2NYtAOMa6jdBFH8kjM0Y29mGeh9nZOLHA/wBEfc8tq41OQ831q919c0vTr7r9at0l
r/rorf8AG2cWIcE5R/myId+ZcUYy7whS2WU1lYWyVMSsLZKmJUy2GmJWFslTEqckgRGY9FBJ+jCh
jpVri7SP9qRgCfdjvlumFRMmrUGyIswACqFGwUUA9hmI5TROFC0nFC0thpVhOSQtLYaYrC2GkWsL
ZKkWsLYaRaxmyQDFReTwyYDElRZsmAwKkxyQYlRY5MMSpMckGJYz57i9TROf++pUb7wV/wCNsmE4
zunX5aXJl8rRxk1+ryyRj6T6n/G+ajXRrJ73Z6c+lml9c8dJRQd5KJ9A6/qyOmjcvcjUSqL5n85X
MOu+Yb1pavbyzcEAJFY4iFXp7LXJaKPiZzLoEaqRxYREcyj9I8s6HFbB/qUbFjUcxz26D7Vc6/DE
CLzObNInmkvnZIPrNjpdnEkbOeZVFC1LngnQfPDlmIxJPIC27SRMj79n0R+UGr3kVtDpEnxWaRhb
fr8HpqFUfIhc85yTM5GR5k29nGPCAB0eoZBk+RvzztBp35yXc4HFLg2lyB7GJEfr4sjZ2/Ys7wR8
ifved7QjWQ+b6F8p3Ju/y/0WetSkfo/REWi/40zQ66HDq8g87+e/6XZaeXFgifx3IgtldJKwtkqY
lYWyVMCplsNMSsLZKmJQWpTcbcr3c0+jrkZ8kw5oTy/F6t+0x+zECR8zsPwzIyenGB3tGP1ZCe5k
ZOYbltE4ULS2FFrC2FFrS2SpFrC2GmKxmwgItSaeMftfdkxEsTIKTXAPTJCLHiUmkJ65IBjawtkq
RamzZIBBKmzZIBiVJjkgxKkxyYYlJ/M8Xq6FeJ4Jz/4Ahv4ZIIid1L8p7kmx1C2rtHKkgHvIpX/m
Xmt7QjuC7PTHmGQec9a+oeXrudTR7eJljP8AxbLRU/FhlETwYjJMhx5BF8/WQL3e37Ow+bZl9k4q
hfe4vaeS5V3M2taKioOiin3Z1EHnZMP08HV/PEs4+KK2J4eHwfu0p82+LNR21n4MBHWWzveysNyH
lu+mPyw0wRxvcEbIvFD/AMKP+Ns4t6R6Bir5i/5yosPS84aRfqKfWbH0iR3aCZzX50lGdX2BO8Uh
3S/Q6TtOPrB8nqP5S3v138uD/wAu9wwA9mCS/wDMw5j9tRrVg/zoj9I/Q29nm8BHcU8LZh02lYWy
VMSsLZKmJUy2GmJWFslTEpRq83xcf5R+LYBHimAplwxJTHy9D6diZCPilYn6BsP45PVSuVdzDTxq
N96ZE5jt6nLPFGKyOqD3IGSjEnkxMgOaEk1azXo/I+Cg5aMEms5ood9ZQ/YjJ+Zp/XLBpz1LA51J
tUmboFX8ckMIY+KVhu526ufo2/VkvDDHjK31Cepr88NItsNgpNu5Y0tuL4aW1pbGkWsZskAi1Nmy
QDElTZskAxUmbJBiUJfR+taTw9fUjZP+CUjJBF7sc/Ku4KatewVosluJCO1Y3AH/ABPMLXx9IPm7
LTncqX5r6rx0+2tAaG6le5kH+RGOKA/Ov4ZrtXtGMB1cjS7ylM9HnmgLylEh7kuf1DN/o4cIA7nS
audknvZJeXv1PSLq8rRo0PD/AFjsv/DEZt4crdbw3IBBflZphZXu2WrSv8Pusew/4ds5Pt7NeQQ/
mj73rOzMdQMu99U+UrAWejRLT4n3J+W38K5oXZJzirwb/nK+w56T5f1AD+4uJ7ct/wAZkVwP+SJz
ofZ+fqnHyH4+11fakdolH/8AOO14bnynqdoT9iOF1HuVeM/8mxmT7QRqWKXvHypp7MO04s2LZrqc
grC2SpgVMtkqYlYWw0xKwtkqYlI9bdImaWRgiEAgsaDbamHHYyBGSjAqNl560+O2W2A/eR/CJGqq
EdjmdPs2RPF0LhQ18QK6qr65d3Q5LMAh6CI0H3jf8cA00Y9EnUSl1UOZJqTU9ycnTG14bI0leGwU
m14bBSbXhsjSbbDY0m2+WCk23yxpba540i1pbDSLWlsNItTZskAhTZskAxJU2bJAMSpMckEFg3li
Y2XnD6uDxMrT2wH+xY/8aZTnhxR9zmQnXxY/+Z2qfWvMFzGjVS342cX+w+3/AMOWzSj16jyj+Pvc
8+jB/W/H3IHRgEhJ8aAfIZ0mDYOgzblf54uTDpVrYr9udubgeCDp/wAE2bLkHH04uRL0f8stCaOO
ztgvxLxB/wBYbn73bPPdXm8TLKfef7HtMGPggI9z6GhiWKJIl+zGoUfICmY7avxV5X/zkpp5uvyy
lnpX6jeW9wT4ci0Ff+S2bfsSdaiu8H9f6HB7RjeL3Fhf/OMV8Prt1Zsfhe3kAH+UkiNT7pDm67fh
enjL+bL7wXX9mSrKR3xeoygo7Ieqkg/RmpjuHLKkWyVMCsLZKmJWFsNMSxnXPONraFoLOlxcjZm/
3Wp9yPtH5ZstN2fKe8th9rgZ9YI7R3LDLzULy9mMt1KZH7V6D2A6DNt+WgI8IFOsOeRlZKiADlHh
ZIciz8SEua+N5Ym5ROUbxBI/VkTnPKQZDCOcSmFvruoRUD0lX/KG/wB4yPDily2ZcWSPmmdv5jtX
oJVaI+P2h+G/4ZCWmPTdnHUDrsmdveW04rFKr+wO/wB2Y8oEcw3RmDyRAbIUztsNgpNrg2Ck23yx
pbdyxpbaLY0ttFsNItYWw0i1hbDSLWM2SAY2ps2SAQVNmyQDEvItT8zQ23n9Li2Ilt7K5Dsw6M3R
wPlUjLMkOHFKR7m6HqlEebHNRuXn1EFzycVkkPizmuc52fHnI9Xa66XKPcyPR4ucsEPYULfRuc6T
BGyA6DMdiUPqK/pPzlDD9qG1IDeFI/jav+y2w9qZ/DwyPlXzcjszDxSiPi+hfyu0qk6ysu0K1Pz6
n/hmGcG9W9PxV2KsP/N/T/r/AOWXmOCleFm9x/0jET/8y8zezp8OogfP79nH1cbxS9zwP/nHTUPQ
85W8RNFkZ0b/AJ6QuF/4ZBnXdqw4tJPyo/a6PRSrNH4vedUX09QuF/yyfv3/AI5zuE3AOyy7SKCL
ZdTSVjNkgGJYH5p82tOz2OnvSAVWader+Kqf5ffv8s3ui0HD6p8+51Wq1V+mPJiwObR15Xg5FiV4
OBiqK2QItINKgCnMeeniW+OeQb9KvvlBwSj9JbhmjL6g1wZTUVBHQ4PFnH6gnwoS5FFQatqUFAsh
dR+y3xfr3yPFjlz2Tw5I8t0xt/M69LiKniyH+B/rgOnB+kpGeuYTK31axnpwmAb+VvhP45TLDIdG
2OWJ6ovnldNlu5Y0tuLYaRa0tjS2tLZKkWsLYaRawthpjamzZIBFsK/Mfzd+ibD6haPTUbxaAjrH
Edi/zPRfv7ZkYcdm1DyMwTWt0I5RxcAEj5gNlupjcCG3DL1Aoizf1715ezvUf6q9M57SY+EAObqp
8RJZp5fKxx3N6/2IUP6uR/Vm+0g5l0uo6R73eQ7JrrVJ72QVZ348vp5v/DNH29m+mHx/V+l6DsvF
Vy+D6g8h6f8AVtHEjCjyn9W/6znNu3ZLirsVQmsWI1DSL6wPS7t5YD/z0Qp/HJ458Mge4sZxsEPj
n8ob82XnSwdvhCXEDOO9FlUMPuY56Fnhx4Zx74H7nl8UuHJE/wBIPqPzInDU3P8AOqt+FP4ZyGkN
wd1qBUkpZsy6cYsQ87+YDbxfo22ak0orcMDuqH9n5t+r55t+zdLxHjlyHJwNZmocIYKDm8dWV4OR
YleDgYrwcDFcDkUKitkSEgqqtkSGQKor5EhNrqIeoymWGJ6Nscsh1WtAD0P0HKDpq5FuGovmFNrd
h2P0b4OLJHzTw45eS6G8vbf+6lYAfs12+47Y+NCX1BfCkPpKPg8zXCUE8YceI+E/xGHwoS+kr4so
8wmEGvafLQFzEx7OKfj0yEsEgyGaJRqzI68kYMp6EGoyumy3F8aW1hfDSLWFslTG0s1/XLTRtMmv
7k/DGKInd3P2UHzycI2aRzeaeSfLeteevNqzSfHNcSci5B4RovVz4JGuw96Drl2ozxwYzI9GyGM5
JCEUn896e+n680DfaQFGPT4o3ZD+rLcchON97GA4bHclemALU+Gw/Wc0xjwzl73LkbAZjdsbPytH
H0kuyCfkfi/4iAM3GEcOMebrfqynyZh+W2kUgt1K7yUZv9n8bf8AC0GcT2lm8TPI9Bt8nrdHj4cY
D6TsLf6tZQwd0UBv9Y7n8cwXJV8VdirsVfE9zbnSPzL1WxT4Bb393Ch9kkfge38oz0bQz44RPfEf
c8rqI8MiO4vqvzFKtwljer9m5gDL8jRv+N84/SR4eKPcXdak3R7wxzUL6Kys5rqU/BCpYjxPYfSd
s2OLGZyER1cKc+EW8jurua7upbmY1llYsx+fYewzrIYxCIiOQdJORJsrAckwK8HIsV4OBiuBwIXg
4GK4HIoVFbAQtr1fIkMrVA+RpNrw+CmVrg+Ck248W6gHISgDzZCZHJTaBD0NPxymWmHRtjqD1UHt
WHTf5ZHgyR5G2XFjlzUle4gasbsjexKnHx+kgjwesSjIfMN/FtJSVf8AKFD94yQGOXI0gmceYtHQ
+ZLN6CVWiPj9ofhv+GJ056KM46oxL21kQukqMqirGo2A8fDIGBHNmJA8nknmfWbjzbr6WloWOm2z
FYqftb0MlPFui+305lY48I3Zk0PN7vpNhb/ll5JUhFHmbVlCxpQEwqB0+Udanxb2znckzrc9f5KH
2/2/c7SI/K4rP95P8fZ97wv8x7eQ/UrtyWdzKsjtuSx4tUn783+E9HWRY7pEDXE8FuvWVwtR7nr9
2YGaF5q728yqF9zLPMAF1q9pp0f93GFUqO3Lc/cgGZ2szDHjMv5ocbQYuMj+kXtX5YaSJLuFivwp
Rz4b/F+pQM8+exewYq7FXYq7FXx9+cFp+jfzn1OgpHLcW84PiJ4o2c9/2mbO67GyXggfh9rzmvjW
WT6Ds7j635C8v3RNSkCQlupqicD/AMm80eSPBq8sfO/0/pc+7wwLA/zD1Epa29ip3mYySD/JTYD6
Sfwze9lYrkZdzrNZPYBgoObx1y8HAxXg4ELgcixXg4GK4HAhcDgRS4HAxpeGwUq4PkaTa8PgpNrg
+Ck2u54KW3c8aTbueNLbRYEUO4xMbUSpReGI9Nj7ZVLTRLYM8gh5LU9iD+ByvwJx+ks/GjL6gw/z
fqskbDSrUkzy0E/HqA3RNv5u/tl2Mz/ibIY4/UHqH5JeRLHStPl84a4oWysQZLfkK+pMu3MA9eB+
FPFvlmm7V1RJGDH9Uuf4/Gzs9DhG+af0x5fj8bqOu61eeYdam1K52DnjBFWojiX7KD9Z98vwYI4Y
CI/BcTPmOWZkWJ/mVYk+W4pwN4bhCT/ksrL+sjMjTy9bEBi3kK2EuoPO32LVS1T2ZhxH4Vy4Y7zc
XcGvUTqFd5Tny3G2peYZ7o/ZrRfbmaD7lBzUdu5qxiP84/YPwHa9lYfVf80Ppb8uNOENg9yRQvsv
07/qC5yjvWZYq7FXYq7FXy1/zlBZG2/MCxvUFBdWETFvGSKWRT/wvHOu7BneEjul+p0faUf3gPeH
qvkC6F5+VUVDUWc7qPk0nP8AVNmP2nHh11/zoj7v2NunN6b3H8fe8z86XZuPME61qsAWJfoFT/wz
HOm7Ox8OEee7p9QbmkoOZjjrwcCFwOBivByLFcDgQuBwIXA4GNLgcCKXA4EUuBxRTYbBSth8FKu5
40tu54KW3c8NLbueNLa0vjSpX5h1uPSrBpzQzv8ADBGe7ePyHfE7NmPHxFBflN5BvvNnmFZbgt6b
EzXNweqRV+Jt/wBp+i/0zX6/WDBjMuvT3u00+A5ZiA+kc3qn5heYra6mh8uaOBHoul0j4x/ZeRBx
691ToPE1Phmq7P05iDln9cvx9rk67OCRjh9EUgsrXptmbOThRCh57071vJWpADeNFlH/ADzkVj+A
OQwT/eBtrZ5P5a1EWmn6qlaPNHGE8a1Kmn0Nm3vZx8kLkGf/AJa6YzQpJT45m5D/AGR4L+AJzi+2
c3HnI6R2ek7Px8OO+99O6DaC10q3iApVQxH+tuPwzVOcj8VdirsVdir58/5yxsKp5c1BR0N1byH5
+m6fqbOk9n5/XH3fpdT2pH6T704/Ie9W88gatZcgXiCT8a71MXEn74cyO3I1mxT7xX2/ta9Cbxzj
8fx8nnOqTGbU7uU/tzSN97HOqwxqER5B089yVAHJsFwOBivBwIXA4GK4HAheDgY02DgRS4HAilwO
BFNg4EU3XFabrgRTfLFadyxWncsVp3LFaU57iKCF5pWCRxgs7HoAMUgWwSCK+83eYkWONnh5rFbw
DqeRoqD/ACnPXKMmQRBJ5Bz4Q4QIj6i+hLt7PyB5Pj0LTZEfX9RXlfXERB9MUoaEfy/ZT6WzmYA6
vN4kh+7jyH4+35O2nIabFwR+uXP8fcwmytem2bacnVxCaJd6ZZit3dwW4HUyyIn/ABIjMYgnkG0B
Ca/5x8kPoeoWMmrQO9zbTQoIuUvxOhUbxhx1ODHgycQNdWyxTwexWSS4SGPd5SEUe7GgzcZJiMTI
8g1xjZAHV9H/AJZ6KrT2sKj4FoB/qj4B+FTnnmSZnIyPMm3qYREQAOj3QAAUGwHTIMnYq7FXYq7F
WIfmp5Ei86+ULjSgQl9ERc6dK3RbiMEKGP8AK4YqfCte2Zug1fgZRLpyPucfU4PEhXV8veQfNuse
SvMklrOrQujvbXVrLsK14yRP8yPoO+dxPFj1GPhPI7xPce95+E5YpX801d+UjN05En782wFBxS4H
AxXg4GK4HAhcDgQvBwMaXA4EU2DgRS4HAilwOKKbrgRTdcC03XFFO5YrTfLGlpTkureP+8lRP9Zg
P14CQkRJQkuu6TF9q5U/6tW/4iDkeMMxil3MR82eZVvgtlZk/VweUzUpyYdB8hkZStyMWLh3KWWe
u39nbiG3jjjUbluJLEnuammVkW2GAJte3mfzFIeK3bjwEYVT/wAKAciYxHNkIdzRi803oo4vJ1Pd
zIV+9tsolqsEOcoj4hujp5nlEqkPk7zBLT/RuAPd3QfgCTmNPtjTx/iv4Fvjocp6Jnb/AJba5LTm
yKD/ACh2/wCNVH45iz7fxDlGR+TdHsyfUhk3lv8ALr6jcrPcEyzfsOQAF/1Vq2/uc1Wu7XnmHCBw
x+9zdPoY4zZ3L3z8uNEe1DzyJx4KFWvbagHzpX781DnM7xV2KuxV2KuxV2KvDv8AnIT8pW1S3k83
6JFXUbZK6pbIN5oUH98tOrxr9rxX3G+/7H7R4D4U/pPLydZr9LxeuPPq8U8u639YQWlw3+kKPgY/
tgfxGdthy3seboiE/By9iuByLFeDgQuBwMVwOBC4HAim+WKKWNd2yfblRfYsMgZAdV4SpNq9gv8A
u0E+wJ/hkDlj3p8KSk2v2g+yrt9AA/XkDnDLwCoP5j/kh+kt/ZkDn8mQ0/monXr+Q0iRa/5Kkn+O
Vy1NcyAzjpgeVlaZvMM32VlAPT4eH8BmJPtLEOcx+Pc5EdDI8olr9DeYLg0eu/8APJy/UWzFn2zg
HUn4frcmPZuTuAV4vI2rS/bYKPEKx/XxzFl29AfTEn7P1uRHsyXUhGw/ltI1PWmffw4r/wA15jT7
en/DED7f1N0ezI9SUztfyrtTTlC8v/Bkf8LwzGn2zqDyIHw/W3R7PxDpacWn5W2akUskPuypX/h+
RzFnr88uc5fOm6OmxjlEMgsfyyn4gRWtF8FDf8aqBmNKZlzNtwiByTm1/K65NCYQPmF/42Yn8Mil
N7b8sgoHN1Udxy/gqj9eKplB+XemJTm4bxHEn/iTH9WKplb+T9GhIIQkj/VX/iIGKpxDDFBEsUSh
I12VRiq/FXYq7FXYq7FXYq7FXzV+ef5LyaTPN5s8swkae7GXUbKIb27k1MsQH+6yeoH2O3w/Z6js
rtW6x5Dv0P6HT63RV648uoecaR5lglh4XriOZB/eHZWHj8863HmBG7pzFFSeZ9HTpKXPgqt/EDJH
NFHCUO/nGyH93DI3+txX+Jys5wvApN5wlP8Ad26r/rMW/UFyB1B7l8Nya7rVx/cx9f8AfcZb9fLM
fJrBHmQGyOAnkCUQkXmif9iYV8aR/r45hZO1sI5zHw/Y3x0OQ/woiLy1r1xTnT/ZMW/4iGzCydt4
R/OP482+PZuTyCPg8jam9Ob8fYL/AM1FcxZ9vR/hh9rfHss9ZJhb/l87EB3YnwqB+oNmLPtzKeQi
G6PZkOpKbW35boaEwu3uQ5H4lRmNPtXUH+KvgG+OhxDom9p+W61AW2Ffklfw5HMaeryy5yl826OC
A5RCeWn5Z3bAf6OadjRyP+NRlBNtoCcWv5WzinKNV96ID+tjgVNbf8tIlA9SRaeFWP6gmKplB+X+
kx05nn/sR/xsXxVMYPKmjQ9Iy3zNP+IhcVRcej6ZH9m2Q/6w5f8AEq4qio4Yo/7tFT/VAH6sVXYq
7FXYq7FXYq7FXYq7FXYq7FXYq7FXYq06JIjI6hkYEMpFQQeoIxV89/mZ/wA4+WUd9Jq+gloLGZuU
9kgBETHrwr0Un7s3Wn7bywjwyHF5uvy9nQkbBphlp+UtqSObSynuOX8EX+OM+3c55CI/HvWPZuMc
7Kd2f5S2C0P1Ik/5YY/8Tan4Ziz7V1Ev4vlQbo6LEOifWH5YRrQQ2aKf8lVH/EFJzFnqMkvqlI/F
ujigOQCf2v5Y3bUrbkfNWP8AxMrlLYm9r+V0gpyCx/8AAD/iIfFU0g/La1WnqyD/AIZv4piqYweR
NGjpyHIjuFUfrDYqmEPlrSIhQQlvmx/hTFUXHpmnR/YtowfEqCfvOKohUVRRQFHgBTFW8VdirsVd
irsVdirsVdirsVdirsVdirsVdirsVdirsVdirsVdirsVcVDAqwqDsQemKoEaFpIYt9XFT7tT7q0x
VXjsbKP+7t41PiFFf1YqrgACg2GKuxV2KuxV2KuxV2KuxV2KuxV2KuxV2KuxV2KuxV2KuxV2KuxV
2KuxV2KuxV//2Q==</xapGImg:image>
              </rdf:li>
            </rdf:Alt>
          </xap:Thumbnails>
        </rdf:Description>
        <rdf:Description
           rdf:about="uuid:1d5424af-bcf6-4c39-808f-267922041dc2">
          <xapMM:DocumentID>
uuid:c0ca0d88-d3d0-4de4-88fb-576c6d69015f</xapMM:DocumentID>
        </rdf:Description>
        <rdf:Description
           rdf:about="uuid:1d5424af-bcf6-4c39-808f-267922041dc2">
          <dc:format>
image/svg+xml</dc:format>
          <dc:title>
            <rdf:Alt>
              <rdf:li
                 xml:lang="x-default">
folder-1.ai</rdf:li>
            </rdf:Alt>
          </dc:title>
        </rdf:Description>
      </rdf:RDF>
    </x:xmpmeta>
    <xpacket>
end='w'</xpacket>
  </metadata>
  <g
     id="Layer_1">
    <path
       style="opacity:0.2;"
       d="M47.465,24.783c-0.165-0.193-0.417-0.291-0.67-0.257l-6.457,0.861L38.885,14.83     c-0.034-0.247-0.165-0.469-0.363-0.619c-0.198-0.15-0.447-0.216-0.693-0.182c0,0-22.446,3.091-24.169,3.328     c-0.009-0.064-0.029-0.211-0.029-0.211c-0.252-1.833-1.874-3.128-3.615-2.889l-5.581,0.769c-0.813,0.112-1.541,0.542-2.049,1.212     c-0.444,0.586-0.683,1.321-0.683,2.069c0,0.159,0.011,0.318,0.032,0.477l0.325,2.357c0,0,0.008,0.048,0.013,0.072     c0.004,0.032,2.813,20.443,2.813,20.443c0.019,0.136,0.066,0.265,0.14,0.379c1.104,1.719,2.422,3.261,3.917,4.583     c0.205,0.181,0.479,0.264,0.749,0.227l32.045-4.413c0.246-0.034,0.469-0.164,0.618-0.362c0.015-0.019,0.023-0.039,0.036-0.059     c0.188-0.089,0.34-0.249,0.402-0.457l4.818-16.067C47.686,25.241,47.63,24.977,47.465,24.783z"
       id="path551" />
    <path
       style="opacity:0.2;"
       d="M47.216,24.408c-0.165-0.194-0.417-0.291-0.67-0.257l-6.458,0.861l-1.453-10.557     c-0.033-0.247-0.164-0.469-0.362-0.619c-0.198-0.15-0.447-0.216-0.693-0.182c0,0-22.446,3.091-24.169,3.328     c-0.009-0.064-0.029-0.211-0.029-0.211c-0.252-1.833-1.874-3.128-3.614-2.889L4.186,14.65c-0.813,0.112-1.541,0.542-2.049,1.212     c-0.444,0.586-0.683,1.321-0.683,2.069c0,0.159,0.011,0.318,0.033,0.477l0.324,2.357c0,0,0.008,0.048,0.013,0.072     C1.828,20.869,4.637,41.28,4.637,41.28c0.019,0.136,0.066,0.265,0.14,0.379c1.104,1.719,2.423,3.261,3.917,4.583     c0.205,0.181,0.479,0.264,0.749,0.227l32.045-4.413c0.246-0.034,0.469-0.164,0.619-0.362c0.014-0.019,0.022-0.039,0.035-0.059     c0.188-0.089,0.34-0.249,0.402-0.457l4.818-16.067C47.437,24.866,47.381,24.602,47.216,24.408z"
       id="path552" />
    <path
       style="opacity:0.2;"
       d="M46.841,23.971c-0.165-0.194-0.417-0.291-0.67-0.257l-6.458,0.862L38.26,14.017     c-0.033-0.247-0.164-0.469-0.362-0.62c-0.197-0.15-0.447-0.215-0.693-0.182c0,0-22.446,3.092-24.168,3.329     c-0.009-0.064-0.029-0.211-0.029-0.211c-0.252-1.833-1.874-3.129-3.614-2.889l-5.581,0.769c-0.813,0.112-1.541,0.542-2.049,1.212     c-0.444,0.586-0.683,1.32-0.683,2.069c0,0.159,0.011,0.318,0.033,0.477l0.325,2.357c0,0,0.008,0.048,0.012,0.071     c0.004,0.032,2.814,20.443,2.814,20.443c0.019,0.135,0.066,0.265,0.14,0.38c1.105,1.717,2.423,3.259,3.917,4.582     c0.205,0.182,0.478,0.264,0.749,0.227l32.044-4.414c0.246-0.033,0.469-0.164,0.619-0.361c0.014-0.019,0.023-0.039,0.035-0.059     c0.188-0.089,0.34-0.249,0.402-0.457l4.818-16.068C47.062,24.429,47.007,24.164,46.841,23.971z"
       id="path553" />
    <radialGradient
       id="XMLID_15_"
       cx="49.9043"
       cy="47.0918"
       r="30.0836"
       fx="49.9043"
       fy="47.0918"
       gradientTransform="matrix(0.3749 0 0 0.375 14.9959 15)"
       gradientUnits="userSpaceOnUse">
      <stop
         offset="0"
         style="stop-color:#85CAFF"
         id="stop555" />
      <stop
         offset="1"
         style="stop-color:#003DA9"
         id="stop556" />
      
      
      
    </radialGradient>
    <path
       style="fill:url(#XMLID_15_);"
       d="M45.797,23.338l-24.382,3.252c-0.393,0.052-0.676,0.4-0.648,0.796l0.98,13.903     c0.029,0.409,0.382,0.72,0.792,0.696l18.582-1.088c0.314-0.02,0.584-0.231,0.675-0.533l4.818-16.068     c0.073-0.244,0.019-0.508-0.147-0.702C46.301,23.401,46.049,23.305,45.797,23.338z"
       id="path560" />
    <linearGradient
       id="XMLID_16_"
       gradientUnits="userSpaceOnUse"
       x1="33.7051"
       y1="29.9229"
       x2="33.7051"
       y2="40.9266">
      <stop
         offset="0"
         style="stop-color:#3399FF"
         id="stop562" />
      <stop
         offset="1"
         style="stop-color:#3399FF"
         id="stop563" />
      
      
      
    </linearGradient>
    <path
       style="fill:url(#XMLID_16_);"
       d="M21.515,27.334c0.046,0.652,0.932,13.219,0.98,13.903     c0.702-0.041,18.083-1.059,18.582-1.088c0.142-0.472,4.513-15.044,4.819-16.067C44.812,24.227,22.178,27.245,21.515,27.334z"
       id="path567" />
    <linearGradient
       id="XMLID_17_"
       gradientUnits="userSpaceOnUse"
       x1="43.6172"
       y1="24.5171"
       x2="36.869"
       y2="29.5782">
      <stop
         offset="0"
         style="stop-color:#3399FF"
         id="stop569" />
      <stop
         offset="1"
         style="stop-color:#000000"
         id="stop570" />
      
      
      
    </linearGradient>
    <path
       style="opacity:0.5;fill:url(#XMLID_17_);"
       d="M21.116,27.948c0.066,0.941,0.885,12.556,0.955,13.544     c1.024-0.061,17.535-1.027,18.267-1.07c0.204-0.684,4.256-14.191,4.697-15.663C43.458,24.969,22.085,27.818,21.116,27.948z"
       id="path574" />
    <path
       style="opacity:0.2;"
       d="M23.793,1.991c-1.203-0.363-2.477,0.32-2.84,1.523l-7.748,25.673c-0.363,1.203,0.32,2.479,1.523,2.842     l22.586,6.819c1.203,0.363,2.478-0.32,2.841-1.523l7.747-25.674c0.363-1.203-0.32-2.478-1.522-2.841L23.793,1.991z"
       id="path575" />
    <path
       style="opacity:0.2;"
       d="M23.418,1.241c-1.203-0.363-2.478,0.32-2.84,1.523L12.83,28.438c-0.363,1.203,0.32,2.479,1.523,2.842     l22.586,6.819c1.203,0.363,2.478-0.32,2.841-1.523l7.747-25.674c0.363-1.203-0.319-2.478-1.522-2.841L23.418,1.241z"
       id="path576" />
    <linearGradient
       id="XMLID_18_"
       gradientUnits="userSpaceOnUse"
       x1="-12.502"
       y1="-47.0874"
       x2="15.6533"
       y2="-47.0874"
       gradientTransform="matrix(0.9573 0.289 -0.289 0.9573 14.7332 63.9165)">
      <stop
         offset="0"
         style="stop-color:#888888"
         id="stop578" />
      <stop
         offset="1"
         style="stop-color:#555555"
         id="stop579" />
      
      
      
    </linearGradient>
    <path
       style="fill:url(#XMLID_18_);"
       d="M23.089,0.866c-1.203-0.363-2.477,0.32-2.84,1.523l-7.748,25.673     c-0.363,1.203,0.32,2.479,1.523,2.842l22.586,6.819c1.203,0.363,2.478-0.32,2.841-1.523l7.748-25.674     c0.362-1.203-0.32-2.478-1.523-2.841L23.089,0.866z"
       id="path583" />
    <path
       style="fill:#99CCFF;"
       d="M13.143,28.256c-0.256,0.852,0.225,1.749,1.075,2.006l22.587,6.82c0.851,0.256,1.748-0.225,2.005-1.076     l7.747-25.673c0.257-0.851-0.225-1.749-1.074-2.005l-22.587-6.82c-0.851-0.257-1.748,0.225-2.005,1.075L13.143,28.256z"
       id="path584" />
    <linearGradient
       id="XMLID_19_"
       gradientUnits="userSpaceOnUse"
       x1="-4.2563"
       y1="-52.9189"
       x2="27.5213"
       y2="-21.1413"
       gradientTransform="matrix(0.9573 0.289 -0.289 0.9573 14.7332 63.9165)">
      <stop
         offset="0"
         style="stop-color:#FFFFFF"
         id="stop586" />
      <stop
         offset="1"
         style="stop-color:#99CCFF"
         id="stop587" />
      
      
      
    </linearGradient>
    <path
       style="fill:url(#XMLID_19_);"
       d="M22.702,2.149C22.207,2,21.682,2.281,21.532,2.777L13.785,28.45     c-0.15,0.495,0.132,1.021,0.627,1.17l22.586,6.82c0.495,0.148,1.02-0.132,1.169-0.628l7.749-25.673     c0.148-0.496-0.133-1.021-0.628-1.17L22.702,2.149z"
       id="path591" />
    <path
       style="opacity:0.4;fill:#FFFFFF;"
       d="M35.193,17.827c3.062-1.518,6.262-1.752,9.514-1.367l1.85-6.127c0.257-0.851-0.225-1.749-1.074-2.005     l-22.587-6.82c-0.851-0.257-1.748,0.225-2.005,1.075l-5.55,18.391C21.559,23.375,28.913,20.764,35.193,17.827z"
       id="path592" />
    <radialGradient
       id="XMLID_20_"
       cx="16.3516"
       cy="37.9961"
       r="49.4148"
       fx="16.3516"
       fy="37.9961"
       gradientTransform="matrix(0.3749 0 0 0.375 14.9959 15)"
       gradientUnits="userSpaceOnUse">
      <stop
         offset="0"
         style="stop-color:#85CAFF"
         id="stop594" />
      <stop
         offset="1"
         style="stop-color:#003DA9"
         id="stop595" />
      
      
      
    </radialGradient>
    <path
       style="fill:url(#XMLID_20_);"
       d="M36.829,12.841c0,0-22.446,3.092-24.168,3.329c-0.009-0.064-0.029-0.211-0.029-0.211     c-0.252-1.833-1.874-3.129-3.614-2.889l-5.581,0.769C2.623,13.95,1.896,14.38,1.388,15.05c-0.444,0.586-0.684,1.32-0.684,2.069     c0,0.159,0.011,0.318,0.033,0.477l0.325,2.357c0,0,0.008,0.048,0.012,0.071c0.004,0.032,2.814,20.443,2.814,20.443     c0.019,0.135,0.066,0.265,0.14,0.38c1.105,1.717,2.423,3.259,3.917,4.582c0.205,0.182,0.478,0.264,0.749,0.227l32.044-4.414     c0.246-0.033,0.469-0.164,0.619-0.361c0.15-0.198,0.216-0.448,0.182-0.694l-3.654-26.544c-0.033-0.247-0.164-0.469-0.361-0.62     C37.325,12.873,37.075,12.807,36.829,12.841z"
       id="path599" />
    <path
       style="opacity:0.1;"
       d="M39.385,14.767c-0.034-0.247-0.164-0.469-0.362-0.62c-0.198-0.15-0.447-0.215-0.693-0.182     c0,0-13.944,1.92-20.694,2.85l-3.85,12.759c-0.15,0.495,0.132,1.021,0.627,1.17l22.586,6.82c0.495,0.148,1.02-0.132,1.169-0.628     l2.933-9.715L39.385,14.767z"
       id="path600" />
    <radialGradient
       id="XMLID_21_"
       cx="38.168"
       cy="18.062"
       r="90.2682"
       fx="38.168"
       fy="18.062"
       gradientTransform="matrix(0.3714 -0.0512 0.0511 0.3715 13.2666 17.0873)"
       gradientUnits="userSpaceOnUse">
      <stop
         offset="0"
         style="stop-color:#99CCFF"
         id="stop602" />
      <stop
         offset="0.5"
         style="stop-color:#3399FF"
         id="stop603" />
      <stop
         offset="1"
         style="stop-color:#3366FF"
         id="stop604" />
      
      
      
      
      
    </radialGradient>
    <path
       style="fill:url(#XMLID_21_);"
       d="M36.957,13.77L11.86,17.226l-0.157-1.14c-0.182-1.323-1.328-2.258-2.558-2.088     l-5.581,0.769c-1.23,0.169-2.081,1.379-1.898,2.702l0.324,2.357c0.002,0.019,0.007,0.037,0.01,0.056L4.816,40.34     c1.045,1.626,2.311,3.114,3.75,4.388l32.044-4.413L36.957,13.77z"
       id="path610" />
    <linearGradient
       id="XMLID_22_"
       gradientUnits="userSpaceOnUse"
       x1="9.6626"
       y1="14.9292"
       x2="9.6626"
       y2="11.9287"
       gradientTransform="matrix(0.9907 -0.1364 0.1364 0.9907 -4.6134 5.5667)">
      <stop
         offset="0"
         style="stop-color:#3399FF"
         id="stop612" />
      <stop
         offset="0.0546"
         style="stop-color:#3B9DFF"
         id="stop613" />
      <stop
         offset="0.3437"
         style="stop-color:#64B1FF"
         id="stop614" />
      <stop
         offset="0.6075"
         style="stop-color:#81C0FF"
         id="stop615" />
      <stop
         offset="0.835"
         style="stop-color:#93C9FF"
         id="stop616" />
      <stop
         offset="1"
         style="stop-color:#99CCFF"
         id="stop617" />
      
      
      
    </linearGradient>
    <path
       style="fill:url(#XMLID_22_);"
       d="M3.641,15.324c-0.921,0.127-1.558,1.055-1.418,2.068l0.325,2.357     c0.139,1.013,1.002,1.734,1.924,1.607l5.581-0.769c0.922-0.126,1.558-1.054,1.418-2.068l-0.324-2.357     c-0.14-1.013-1.003-1.734-1.924-1.608L3.641,15.324z"
       id="path621" />
    <linearGradient
       id="XMLID_23_"
       gradientUnits="userSpaceOnUse"
       x1="13.4614"
       y1="13.7358"
       x2="29.0541"
       y2="34.062"
       gradientTransform="matrix(0.9907 -0.1364 0.1364 0.9907 -4.6134 5.5667)">
      <stop
         offset="0"
         style="stop-color:#FFFFFF"
         id="stop623" />
      <stop
         offset="1"
         style="stop-color:#66B3FF"
         id="stop624" />
      
      
      
    </linearGradient>
    <path
       style="opacity:0.8;fill:url(#XMLID_23_);"
       d="M2.458,19.088c0.11,0.798,2.075,15.077,2.957,21.48     c0.192,0.256,0.39,0.506,0.593,0.752c0.054-3.912,1.658-7.941,4.878-10.158c4.991-3.606,11.106-3.172,16.925-4.885     c4.775-1.506,8.133-5.882,8.843-10.583c-0.098-0.707-0.16-1.165-0.178-1.29C35.415,14.55,3.521,18.942,2.458,19.088z"
       id="path628" />
    <path
       style="fill:#FFFFFF;"
       d="M9.196,14.369l-5.581,0.769c-0.922,0.127-1.558,1.055-1.418,2.068l0.103,0.743     c-0.14-1.013,0.497-1.941,1.418-2.068l5.581-0.769c0.921-0.127,1.785,0.594,1.924,1.607l-0.103-0.743     C10.981,14.963,10.118,14.242,9.196,14.369z"
       id="path629" />
    <path
       style="fill:#FFFFFF;"
       d="M2.316,18.924l2.939,21.357c0.218,0.297,0.445,0.586,0.68,0.871L3.229,21.486     c-0.161-1.167,0.683-2.248,1.885-2.413l31.121-4.286c0.117-0.016,0.233-0.02,0.349-0.019l-0.076-0.553L2.316,18.924z"
       id="path630" />
    <linearGradient
       id="XMLID_24_"
       gradientUnits="userSpaceOnUse"
       x1="24.7466"
       y1="19.9067"
       x2="49.2741"
       y2="44.4342">
      <stop
         offset="0"
         style="stop-color:#FFFFFF"
         id="stop632" />
      <stop
         offset="1"
         style="stop-color:#99CCFF"
         id="stop633" />
      
      
      
    </linearGradient>
    <path
       style="opacity:0.3;fill:url(#XMLID_24_);"
       d="M37.758,12.713l-0.929,0.127c0,0-12.005,1.654-19.129,2.635L13.785,28.45     c-0.15,0.495,0.132,1.021,0.627,1.17l22.586,6.82c0.495,0.148,1.02-0.132,1.169-0.628l1.902-6.303L37.758,12.713z"
       id="path637" />
    <linearGradient
       id="XMLID_25_"
       gradientUnits="userSpaceOnUse"
       x1="16.3711"
       y1="14.8774"
       x2="43.5069"
       y2="33.6638">
      <stop
         offset="0"
         style="stop-color:#3399FF"
         id="stop639" />
      <stop
         offset="1"
         style="stop-color:#0066CC"
         id="stop640" />
      
      
      
    </linearGradient>
    <path
       style="opacity:0.3;fill:url(#XMLID_25_);"
       d="M37.758,12.713l2.312,16.796l-1.902,6.303     c-0.149,0.496-0.674,0.776-1.169,0.628l-22.586-6.82c-0.495-0.149-0.777-0.675-0.627-1.17L17.7,15.476     c-0.249,0.034-0.494,0.068-0.73,0.101l-3.827,12.68c-0.256,0.852,0.225,1.749,1.075,2.006l22.587,6.82     c0.851,0.256,1.748-0.225,2.005-1.076l1.479-4.902L37.758,12.713z M36.413,12.898c0.053-0.007,0.099-0.014,0.142-0.02     C36.512,12.885,36.466,12.891,36.413,12.898z M34.334,13.185c0.08-0.011,0.159-0.021,0.236-0.032     C34.493,13.163,34.414,13.173,34.334,13.185z"
       id="path644" />
    <path
       style="opacity:0.1;fill:url(#XMLID_25_);"
       d="M37.758,12.713l2.312,16.796l-1.902,6.303     c-0.149,0.496-0.674,0.776-1.169,0.628l-22.586-6.82c-0.495-0.149-0.777-0.675-0.627-1.17L17.7,15.476     c-0.249,0.034-0.494,0.068-0.73,0.101l-3.827,12.68c-0.256,0.852,0.225,1.749,1.075,2.006l22.587,6.82     c0.851,0.256,1.748-0.225,2.005-1.076l1.479-4.902L37.758,12.713z M36.413,12.898c0.053-0.007,0.099-0.014,0.142-0.02     C36.512,12.885,36.466,12.891,36.413,12.898z M34.334,13.185c0.08-0.011,0.159-0.021,0.236-0.032     C34.493,13.163,34.414,13.173,34.334,13.185z"
       id="path645" />
    <linearGradient
       id="XMLID_27_"
       gradientUnits="userSpaceOnUse"
       x1="12.4033"
       y1="26.7041"
       x2="40.5078"
       y2="26.7041">
      <stop
         offset="0"
         style="stop-color:#888888"
         id="stop647" />
      <stop
         offset="1"
         style="stop-color:#555555"
         id="stop648" />
      
      
      
    </linearGradient>
    <path
       style="opacity:0.3;fill:url(#XMLID_27_);"
       d="M40.239,30.744l0.05,0.359l-1.479,4.902     c-0.257,0.852-1.154,1.332-2.005,1.076l-22.587-6.82c-0.85-0.257-1.332-1.154-1.075-2.006l3.482-11.537     c-0.031-0.37,0.094-0.754,0.265-1.132c-0.223,0.031-0.44,0.061-0.651,0.09l-3.738,12.386c-0.363,1.203,0.32,2.479,1.523,2.842     l22.586,6.819c1.203,0.363,2.478-0.32,2.841-1.523l1.057-3.503L40.239,30.744z"
       id="path652" />
    <polygon
       style="fill:#003DA9;"
       points="38.722,32.001 31.627,42.053 41.232,40.73 39.817,30.447 "
       id="polygon653" />
    <linearGradient
       id="XMLID_28_"
       gradientUnits="userSpaceOnUse"
       x1="41.5449"
       y1="40.6279"
       x2="36.1435"
       y2="36.6497">
      <stop
         offset="0"
         style="stop-color:#C5F0FF"
         id="stop655" />
      <stop
         offset="1"
         style="stop-color:#1D74D9"
         id="stop656" />
      
      
      
    </linearGradient>
    <polygon
       style="fill:url(#XMLID_28_);"
       points="33.236,41.074 40.388,40.089 39.334,32.434 "
       id="polygon660" />
    <path
       style="fill:#FFFFFF;"
       d="M39.119,34.537c-0.04-0.292-0.077-0.566-0.111-0.812c-1.105,1.579-3.719,5.312-4.736,6.767     c0.226-0.031,0.48-0.066,0.752-0.104C36.073,38.888,38.011,36.121,39.119,34.537z"
       id="path661" />
    <polyline
       id="_x3C_Slice_x3E_"
       style="fill:none;"
       points="0,48 0,0 47.987,0 47.987,48 " />
  </g>
</svg>
